<svg width="687pt" height="824pt" viewBox="0.00 0.00 687.11 824.00" xmlns="http://www.w3.org/2000/svg" xmlns:xlink="http://www.w3.org/1999/xlink">
<g id="graph0" class="graph" transform="scale(1 1) rotate(0) translate(4 820)">
<title>dependency-cruiser output</title>
<polygon fill="#eeeeee" stroke="none" points="-4,4 -4,-820 683.11,-820 683.11,4 -4,4"></polygon>
<g id="clust1" class="cluster">
<title>cluster_node_modules</title>
<path fill="#eeeeee" stroke="#808080" stroke-opacity="0.250980" d="M142.77,-8C142.77,-8 659.11,-8 659.11,-8 665.11,-8 671.11,-14 671.11,-20 671.11,-20 671.11,-356 671.11,-356 671.11,-362 665.11,-368 659.11,-368 659.11,-368 142.77,-368 142.77,-368 136.77,-368 130.77,-362 130.77,-356 130.77,-356 130.77,-20 130.77,-20 130.77,-14 136.77,-8 142.77,-8"></path>
<text text-anchor="middle" x="400.94" y="-355.9" font-family="Helvetica,sans-Serif" font-weight="bold" font-size="9.00">node_modules</text>
</g>
<g id="clust2" class="cluster">
<title>cluster_node_modules/@babel</title>
<path fill="#eeeeee" stroke="#808080" stroke-opacity="0.250980" d="M603.61,-288C603.61,-288 649.61,-288 649.61,-288 655.61,-288 661.61,-294 661.61,-300 661.61,-300 661.61,-329 661.61,-329 661.61,-335 655.61,-341 649.61,-341 649.61,-341 603.61,-341 603.61,-341 597.61,-341 591.61,-335 591.61,-329 591.61,-329 591.61,-300 591.61,-300 591.61,-294 597.61,-288 603.61,-288"></path>
<text text-anchor="middle" x="626.61" y="-328.9" font-family="Helvetica,sans-Serif" font-weight="bold" font-size="9.00">@babel</text>
</g>
<g id="clust3" class="cluster">
<title>cluster_node_modules/@vue</title>
<path fill="#eeeeee" stroke="#808080" stroke-opacity="0.250980" d="M332.56,-28C332.56,-28 649.61,-28 649.61,-28 655.61,-28 661.61,-34 661.61,-40 661.61,-40 661.61,-165 661.61,-165 661.61,-171 655.61,-177 649.61,-177 649.61,-177 332.56,-177 332.56,-177 326.56,-177 320.56,-171 320.56,-165 320.56,-165 320.56,-40 320.56,-40 320.56,-34 326.56,-28 332.56,-28"></path>
<text text-anchor="middle" x="491.08" y="-164.9" font-family="Helvetica,sans-Serif" font-weight="bold" font-size="9.00">@vue</text>
</g>
<g id="clust4" class="cluster">
<title>cluster_src</title>
<path fill="#eeeeee" stroke="#808080" stroke-opacity="0.250980" d="M20,-376C20,-376 236.56,-376 236.56,-376 242.56,-376 248.56,-382 248.56,-388 248.56,-388 248.56,-796 248.56,-796 248.56,-802 242.56,-808 236.56,-808 236.56,-808 20,-808 20,-808 14,-808 8,-802 8,-796 8,-796 8,-388 8,-388 8,-382 14,-376 20,-376"></path>
<text text-anchor="middle" x="128.28" y="-795.9" font-family="Helvetica,sans-Serif" font-weight="bold" font-size="9.00">src</text>
</g>
<g id="clust5" class="cluster">
<title>cluster_src/layouts</title>
<path fill="#eeeeee" stroke="#808080" stroke-opacity="0.250980" d="M133.25,-384C133.25,-384 201.3,-384 201.3,-384 207.3,-384 213.3,-390 213.3,-396 213.3,-396 213.3,-425 213.3,-425 213.3,-431 207.3,-437 201.3,-437 201.3,-437 133.25,-437 133.25,-437 127.25,-437 121.25,-431 121.25,-425 121.25,-425 121.25,-396 121.25,-396 121.25,-390 127.25,-384 133.25,-384"></path>
<text text-anchor="middle" x="167.28" y="-424.9" font-family="Helvetica,sans-Serif" font-weight="bold" font-size="9.00">layouts</text>
</g>
<g id="clust6" class="cluster">
<title>cluster_src/router</title>
<path fill="#eeeeee" stroke="#808080" stroke-opacity="0.250980" d="M28,-545C28,-545 74,-545 74,-545 80,-545 86,-551 86,-557 86,-557 86,-586 86,-586 86,-592 80,-598 74,-598 74,-598 28,-598 28,-598 22,-598 16,-592 16,-586 16,-586 16,-557 16,-557 16,-551 22,-545 28,-545"></path>
<text text-anchor="middle" x="51" y="-585.9" font-family="Helvetica,sans-Serif" font-weight="bold" font-size="9.00">router</text>
</g>
<g id="clust7" class="cluster">
<title>cluster_src/views</title>
<path fill="#eeeeee" stroke="#808080" stroke-opacity="0.250980" d="M106,-445C106,-445 228.56,-445 228.56,-445 234.56,-445 240.56,-451 240.56,-457 240.56,-457 240.56,-769 240.56,-769 240.56,-775 234.56,-781 228.56,-781 228.56,-781 106,-781 106,-781 100,-781 94,-775 94,-769 94,-769 94,-457 94,-457 94,-451 100,-445 106,-445"></path>
<text text-anchor="middle" x="167.28" y="-768.9" font-family="Helvetica,sans-Serif" font-weight="bold" font-size="9.00">views</text>
</g>
<g id="clust8" class="cluster">
<title>cluster_src/views/finance</title>
<path fill="#eeeeee" stroke="#808080" stroke-opacity="0.250980" d="M114,-453C114,-453 220.56,-453 220.56,-453 226.56,-453 232.56,-459 232.56,-465 232.56,-465 232.56,-642 232.56,-642 232.56,-648 226.56,-654 220.56,-654 220.56,-654 114,-654 114,-654 108,-654 102,-648 102,-642 102,-642 102,-465 102,-465 102,-459 108,-453 114,-453"></path>
<text text-anchor="middle" x="167.28" y="-641.9" font-family="Helvetica,sans-Serif" font-weight="bold" font-size="9.00">finance</text>
</g>
<!-- node_modules/@babel/parser -->
<g id="node1" class="node">
<title>node_modules/@babel/parser</title>
<g id="a_node1"><a xlink:href="node_modules/@babel/parser" xlink:title="parser">
<polygon fill="#c40b0a" fill-opacity="0.101961" stroke="black" points="653.61,-314.4 601.7,-314.4 599.61,-312.31 599.61,-295.6 651.52,-295.6 653.61,-297.69 653.61,-314.4"></polygon>
<polyline fill="none" stroke="black" points="651.52,-312.31 599.61,-312.31"></polyline>
<polyline fill="none" stroke="black" points="651.52,-312.31 651.52,-295.6"></polyline>
<polyline fill="none" stroke="black" points="651.52,-312.31 653.61,-314.4"></polyline>
<text text-anchor="start" x="613.85" y="-302.3" font-family="Helvetica,sans-Serif" font-size="9.00" fill="#c40b0a">parser</text>
</a>
</g>
</g>
<!-- node_modules/@vue/compiler&#45;core -->
<g id="node2" class="node">
<title>node_modules/@vue/compiler-core</title>
<g id="a_node2"><a xlink:href="node_modules/@vue/compiler-core" xlink:title="compiler-core">
<polygon fill="#c40b0a" fill-opacity="0.101961" stroke="black" points="572.1,-150.4 503.67,-150.4 501.59,-148.31 501.59,-131.6 570.01,-131.6 572.1,-133.69 572.1,-150.4"></polygon>
<polyline fill="none" stroke="black" points="570.01,-148.31 501.59,-148.31"></polyline>
<polyline fill="none" stroke="black" points="570.01,-148.31 570.01,-131.6"></polyline>
<polyline fill="none" stroke="black" points="570.01,-148.31 572.1,-150.4"></polyline>
<text text-anchor="start" x="509.59" y="-138.3" font-family="Helvetica,sans-Serif" font-size="9.00" fill="#c40b0a">compiler-core</text>
</a>
</g>
</g>
<!-- node_modules/@vue/compiler&#45;core&#45;&gt;node_modules/@babel/parser -->
<g id="edge1" class="edge">
<title>node_modules/@vue/compiler-core-&gt;node_modules/@babel/parser</title>
<path fill="none" stroke="#283178" stroke-opacity="0.450980" d="M538.4,-150.59C540.33,-175.44 548.68,-242.89 591.4,-290.37"></path>
<polygon fill="#283178" fill-opacity="0.450980" stroke="#283178" stroke-opacity="0.450980" points="588.65,-292.55 598.12,-297.31 593.68,-287.69 588.65,-292.55"></polygon>
</g>
<!-- node_modules/@vue/shared -->
<g id="node3" class="node">
<title>node_modules/@vue/shared</title>
<g id="a_node3"><a xlink:href="node_modules/@vue/shared" xlink:title="shared">
<polygon fill="#c40b0a" fill-opacity="0.101961" stroke="black" points="653.61,-88.4 601.7,-88.4 599.61,-86.31 599.61,-69.6 651.52,-69.6 653.61,-71.69 653.61,-88.4"></polygon>
<polyline fill="none" stroke="black" points="651.52,-86.31 599.61,-86.31"></polyline>
<polyline fill="none" stroke="black" points="651.52,-86.31 651.52,-69.6"></polyline>
<polyline fill="none" stroke="black" points="651.52,-86.31 653.61,-88.4"></polyline>
<text text-anchor="start" x="612.85" y="-76.3" font-family="Helvetica,sans-Serif" font-size="9.00" fill="#c40b0a">shared</text>
</a>
</g>
</g>
<!-- node_modules/@vue/compiler&#45;core&#45;&gt;node_modules/@vue/shared -->
<g id="edge2" class="edge">
<title>node_modules/@vue/compiler-core-&gt;node_modules/@vue/shared</title>
<path fill="none" stroke="#283178" stroke-opacity="0.450980" d="M555.17,-131.16C560.91,-127.45 567.1,-122.93 572.1,-118 580.31,-109.91 579.68,-103.38 590.47,-93.49"></path>
<polygon fill="#283178" fill-opacity="0.450980" stroke="#283178" stroke-opacity="0.450980" points="592.52,-96.33 598.22,-87.39 588.2,-90.82 592.52,-96.33"></polygon>
</g>
<!-- node_modules/entities -->
<g id="node4" class="node">
<title>node_modules/entities</title>
<g id="a_node4"><a xlink:href="node_modules/entities" xlink:title="entities">
<polygon fill="#c40b0a" fill-opacity="0.101961" stroke="black" points="653.61,-277.4 601.7,-277.4 599.61,-275.31 599.61,-258.6 651.52,-258.6 653.61,-260.69 653.61,-277.4"></polygon>
<polyline fill="none" stroke="black" points="651.52,-275.31 599.61,-275.31"></polyline>
<polyline fill="none" stroke="black" points="651.52,-275.31 651.52,-258.6"></polyline>
<polyline fill="none" stroke="black" points="651.52,-275.31 653.61,-277.4"></polyline>
<text text-anchor="start" x="612.35" y="-265.3" font-family="Helvetica,sans-Serif" font-size="9.00" fill="#c40b0a">entities</text>
</a>
</g>
</g>
<!-- node_modules/@vue/compiler&#45;core&#45;&gt;node_modules/entities -->
<g id="edge3" class="edge">
<title>node_modules/@vue/compiler-core-&gt;node_modules/entities</title>
<path fill="none" stroke="#283178" stroke-opacity="0.450980" d="M540.36,-150.85C546.05,-171.4 561.68,-219.4 590.1,-249 591.08,-250.02 592.13,-251 593.23,-251.94"></path>
<polygon fill="#283178" fill-opacity="0.450980" stroke="#283178" stroke-opacity="0.450980" points="590.9,-254.58 601.11,-257.43 594.9,-248.84 590.9,-254.58"></polygon>
</g>
<!-- node_modules/estree&#45;walker -->
<g id="node5" class="node">
<title>node_modules/estree-walker</title>
<g id="a_node5"><a xlink:href="node_modules/estree-walker" xlink:title="estree-walker">
<polygon fill="#c40b0a" fill-opacity="0.101961" stroke="black" points="661.62,-203.4 593.69,-203.4 591.6,-201.31 591.6,-184.6 659.53,-184.6 661.62,-186.69 661.62,-203.4"></polygon>
<polyline fill="none" stroke="black" points="659.53,-201.31 591.6,-201.31"></polyline>
<polyline fill="none" stroke="black" points="659.53,-201.31 659.53,-184.6"></polyline>
<polyline fill="none" stroke="black" points="659.53,-201.31 661.62,-203.4"></polyline>
<text text-anchor="start" x="599.6" y="-191.3" font-family="Helvetica,sans-Serif" font-size="9.00" fill="#c40b0a">estree-walker</text>
</a>
</g>
</g>
<!-- node_modules/@vue/compiler&#45;core&#45;&gt;node_modules/estree&#45;walker -->
<g id="edge4" class="edge">
<title>node_modules/@vue/compiler-core-&gt;node_modules/estree-walker</title>
<path fill="none" stroke="#283178" stroke-opacity="0.450980" d="M548.38,-150.62C556.91,-158.07 569.62,-168.47 586.68,-178.62"></path>
<polygon fill="#283178" fill-opacity="0.450980" stroke="#283178" stroke-opacity="0.450980" points="584.85,-181.61 595.28,-183.48 588.29,-175.51 584.85,-181.61"></polygon>
</g>
<!-- node_modules/source&#45;map&#45;js -->
<g id="node6" class="node">
<title>node_modules/source-map-js</title>
<g id="a_node6"><a xlink:href="node_modules/source-map-js" xlink:title="source-map-js">
<polygon fill="#c40b0a" fill-opacity="0.101961" stroke="black" points="663.11,-240.4 592.19,-240.4 590.1,-238.31 590.1,-221.6 661.03,-221.6 663.11,-223.69 663.11,-240.4"></polygon>
<polyline fill="none" stroke="black" points="661.03,-238.31 590.1,-238.31"></polyline>
<polyline fill="none" stroke="black" points="661.03,-238.31 661.03,-221.6"></polyline>
<polyline fill="none" stroke="black" points="661.03,-238.31 663.11,-240.4"></polyline>
<text text-anchor="start" x="598.1" y="-228.3" font-family="Helvetica,sans-Serif" font-size="9.00" fill="#c40b0a">source-map-js</text>
</a>
</g>
</g>
<!-- node_modules/@vue/compiler&#45;core&#45;&gt;node_modules/source&#45;map&#45;js -->
<g id="edge5" class="edge">
<title>node_modules/@vue/compiler-core-&gt;node_modules/source-map-js</title>
<path fill="none" stroke="#283178" stroke-opacity="0.450980" d="M543.14,-150.8C551.51,-165.57 569.04,-193.76 590.1,-212 591.35,-213.09 592.68,-214.14 594.06,-215.14"></path>
<polygon fill="#283178" fill-opacity="0.450980" stroke="#283178" stroke-opacity="0.450980" points="591.99,-217.98 602.31,-220.38 595.74,-212.07 591.99,-217.98"></polygon>
</g>
<!-- node_modules/@vue/compiler&#45;dom -->
<g id="node7" class="node">
<title>node_modules/@vue/compiler-dom</title>
<g id="a_node7"><a xlink:href="node_modules/@vue/compiler-dom" xlink:title="compiler-dom">
<polygon fill="#c40b0a" fill-opacity="0.101961" stroke="black" points="483.59,-94.4 415.16,-94.4 413.07,-92.31 413.07,-75.6 481.5,-75.6 483.59,-77.69 483.59,-94.4"></polygon>
<polyline fill="none" stroke="black" points="481.5,-92.31 413.07,-92.31"></polyline>
<polyline fill="none" stroke="black" points="481.5,-92.31 481.5,-75.6"></polyline>
<polyline fill="none" stroke="black" points="481.5,-92.31 483.59,-94.4"></polyline>
<text text-anchor="start" x="421.07" y="-82.3" font-family="Helvetica,sans-Serif" font-size="9.00" fill="#c40b0a">compiler-dom</text>
</a>
</g>
</g>
<!-- node_modules/@vue/compiler&#45;dom&#45;&gt;node_modules/@vue/compiler&#45;core -->
<g id="edge6" class="edge">
<title>node_modules/@vue/compiler-dom-&gt;node_modules/@vue/compiler-core</title>
<path fill="none" stroke="#283178" stroke-opacity="0.450980" d="M464.4,-94.75C477.34,-103.13 496.26,-115.38 511.37,-125.16"></path>
<polygon fill="#283178" fill-opacity="0.450980" stroke="#283178" stroke-opacity="0.450980" points="509.09,-127.85 519.38,-130.35 512.89,-121.97 509.09,-127.85"></polygon>
</g>
<!-- node_modules/@vue/compiler&#45;dom&#45;&gt;node_modules/@vue/shared -->
<g id="edge7" class="edge">
<title>node_modules/@vue/compiler-dom-&gt;node_modules/@vue/shared</title>
<path fill="none" stroke="#283178" stroke-opacity="0.450980" d="M484.01,-84.97C508.61,-84.82 542.39,-84.35 572.1,-83 577.21,-82.77 582.59,-82.45 587.89,-82.1"></path>
<polygon fill="#283178" fill-opacity="0.450980" stroke="#283178" stroke-opacity="0.450980" points="587.99,-85.6 597.72,-81.39 587.49,-78.62 587.99,-85.6"></polygon>
</g>
<!-- node_modules/@vue/reactivity -->
<g id="node8" class="node">
<title>node_modules/@vue/reactivity</title>
<g id="a_node8"><a xlink:href="node_modules/@vue/reactivity" xlink:title="reactivity">
<polygon fill="#c40b0a" fill-opacity="0.101961" stroke="black" points="563.84,-74.4 511.93,-74.4 509.84,-72.31 509.84,-55.6 561.75,-55.6 563.84,-57.69 563.84,-74.4"></polygon>
<polyline fill="none" stroke="black" points="561.75,-72.31 509.84,-72.31"></polyline>
<polyline fill="none" stroke="black" points="561.75,-72.31 561.75,-55.6"></polyline>
<polyline fill="none" stroke="black" points="561.75,-72.31 563.84,-74.4"></polyline>
<text text-anchor="start" x="519.09" y="-62.3" font-family="Helvetica,sans-Serif" font-size="9.00" fill="#c40b0a">reactivity</text>
</a>
</g>
</g>
<!-- node_modules/@vue/reactivity&#45;&gt;node_modules/@vue/shared -->
<g id="edge8" class="edge">
<title>node_modules/@vue/reactivity-&gt;node_modules/@vue/shared</title>
<path fill="none" stroke="#283178" stroke-opacity="0.450980" d="M564.17,-69.2C571.72,-70.4 580.1,-71.74 588.19,-73.03"></path>
<polygon fill="#283178" fill-opacity="0.450980" stroke="#283178" stroke-opacity="0.450980" points="587.37,-76.45 597.8,-74.56 588.47,-69.53 587.37,-76.45"></polygon>
</g>
<!-- node_modules/@vue/runtime&#45;core -->
<g id="node9" class="node">
<title>node_modules/@vue/runtime-core</title>
<g id="a_node9"><a xlink:href="node_modules/@vue/runtime-core" xlink:title="runtime-core">
<polygon fill="#c40b0a" fill-opacity="0.101961" stroke="black" points="481.59,-57.4 417.16,-57.4 415.07,-55.31 415.07,-38.6 479.5,-38.6 481.59,-40.69 481.59,-57.4"></polygon>
<polyline fill="none" stroke="black" points="479.5,-55.31 415.07,-55.31"></polyline>
<polyline fill="none" stroke="black" points="479.5,-55.31 479.5,-38.6"></polyline>
<polyline fill="none" stroke="black" points="479.5,-55.31 481.59,-57.4"></polyline>
<text text-anchor="start" x="423.07" y="-45.3" font-family="Helvetica,sans-Serif" font-size="9.00" fill="#c40b0a">runtime-core</text>
</a>
</g>
</g>
<!-- node_modules/@vue/runtime&#45;core&#45;&gt;node_modules/@vue/shared -->
<g id="edge10" class="edge">
<title>node_modules/@vue/runtime-core-&gt;node_modules/@vue/shared</title>
<path fill="none" stroke="#283178" stroke-opacity="0.450980" d="M482.01,-42.93C507.12,-40.18 542.41,-38.8 572.1,-47 583.59,-50.17 595.1,-56.54 604.49,-62.77"></path>
<polygon fill="#283178" fill-opacity="0.450980" stroke="#283178" stroke-opacity="0.450980" points="602.31,-65.52 612.5,-68.43 606.35,-59.8 602.31,-65.52"></polygon>
</g>
<!-- node_modules/@vue/runtime&#45;core&#45;&gt;node_modules/@vue/reactivity -->
<g id="edge9" class="edge">
<title>node_modules/@vue/runtime-core-&gt;node_modules/@vue/reactivity</title>
<path fill="none" stroke="#283178" stroke-opacity="0.450980" d="M482.04,-54.43C487.43,-55.49 493.07,-56.59 498.57,-57.68"></path>
<polygon fill="#283178" fill-opacity="0.450980" stroke="#283178" stroke-opacity="0.450980" points="497.58,-61.05 508.07,-59.54 498.93,-54.18 497.58,-61.05"></polygon>
</g>
<!-- node_modules/@vue/runtime&#45;dom -->
<g id="node10" class="node">
<title>node_modules/@vue/runtime-dom</title>
<g id="a_node10"><a xlink:href="node_modules/@vue/runtime-dom" xlink:title="runtime-dom">
<polygon fill="#c40b0a" fill-opacity="0.101961" stroke="black" points="395.07,-122.4 330.65,-122.4 328.56,-120.31 328.56,-103.6 392.98,-103.6 395.07,-105.69 395.07,-122.4"></polygon>
<polyline fill="none" stroke="black" points="392.98,-120.31 328.56,-120.31"></polyline>
<polyline fill="none" stroke="black" points="392.98,-120.31 392.98,-103.6"></polyline>
<polyline fill="none" stroke="black" points="392.98,-120.31 395.07,-122.4"></polyline>
<text text-anchor="start" x="336.56" y="-110.3" font-family="Helvetica,sans-Serif" font-size="9.00" fill="#c40b0a">runtime-dom</text>
</a>
</g>
</g>
<!-- node_modules/@vue/runtime&#45;dom&#45;&gt;node_modules/@vue/shared -->
<g id="edge12" class="edge">
<title>node_modules/@vue/runtime-dom-&gt;node_modules/@vue/shared</title>
<path fill="none" stroke="#283178" stroke-opacity="0.450980" d="M395.44,-111.05C419.79,-109.41 453.84,-106.74 483.59,-103 519.24,-98.52 559.62,-91.51 588.18,-86.22"></path>
<polygon fill="#283178" fill-opacity="0.450980" stroke="#283178" stroke-opacity="0.450980" points="588.6,-89.7 597.78,-84.42 587.31,-82.82 588.6,-89.7"></polygon>
</g>
<!-- node_modules/@vue/runtime&#45;dom&#45;&gt;node_modules/@vue/runtime&#45;core -->
<g id="edge11" class="edge">
<title>node_modules/@vue/runtime-dom-&gt;node_modules/@vue/runtime-core</title>
<path fill="none" stroke="#283178" stroke-opacity="0.450980" d="M390.99,-103.11C392.44,-102.16 393.81,-101.12 395.07,-100 407.55,-88.89 401.3,-78.85 413.07,-67 414.07,-66 415.13,-65.03 416.24,-64.1"></path>
<polygon fill="#283178" fill-opacity="0.450980" stroke="#283178" stroke-opacity="0.450980" points="417.93,-67.19 424.14,-58.6 413.93,-61.44 417.93,-67.19"></polygon>
</g>
<!-- node_modules/vue -->
<g id="node11" class="node">
<title>node_modules/vue</title>
<g id="a_node11"><a xlink:href="node_modules/vue" xlink:title="vue">
<polygon fill="#c40b0a" fill-opacity="0.101961" stroke="black" points="310.56,-108.4 258.65,-108.4 256.56,-106.31 256.56,-89.6 308.47,-89.6 310.56,-91.69 310.56,-108.4"></polygon>
<polyline fill="none" stroke="black" points="308.47,-106.31 256.56,-106.31"></polyline>
<polyline fill="none" stroke="black" points="308.47,-106.31 308.47,-89.6"></polyline>
<polyline fill="none" stroke="black" points="308.47,-106.31 310.56,-108.4"></polyline>
<text text-anchor="start" x="276.3" y="-96.3" font-family="Helvetica,sans-Serif" font-size="9.00" fill="#c40b0a">vue</text>
</a>
</g>
</g>
<!-- node_modules/vue&#45;&gt;node_modules/@vue/shared -->
<g id="edge15" class="edge">
<title>node_modules/vue-&gt;node_modules/@vue/shared</title>
<path fill="none" stroke="#283178" stroke-opacity="0.450980" d="M297.52,-89.18C319.74,-73.04 367.15,-41.55 413.07,-30 481.67,-12.75 506.22,-10.27 572.1,-36 586.21,-41.51 599.5,-52.15 609.3,-61.46"></path>
<polygon fill="#283178" fill-opacity="0.450980" stroke="#283178" stroke-opacity="0.450980" points="606.65,-63.76 616.18,-68.39 611.62,-58.83 606.65,-63.76"></polygon>
</g>
<!-- node_modules/vue&#45;&gt;node_modules/@vue/compiler&#45;dom -->
<g id="edge13" class="edge">
<title>node_modules/vue-&gt;node_modules/@vue/compiler-dom</title>
<path fill="none" stroke="#283178" stroke-opacity="0.450980" d="M310.89,-95.98C314.15,-95.63 317.43,-95.3 320.56,-95 347.28,-92.46 377.22,-90.08 401.29,-88.28"></path>
<polygon fill="#283178" fill-opacity="0.450980" stroke="#283178" stroke-opacity="0.450980" points="401.37,-91.78 411.09,-87.55 400.86,-84.8 401.37,-91.78"></polygon>
</g>
<!-- node_modules/vue&#45;&gt;node_modules/@vue/runtime&#45;dom -->
<g id="edge14" class="edge">
<title>node_modules/vue-&gt;node_modules/@vue/runtime-dom</title>
<path fill="none" stroke="#283178" stroke-opacity="0.450980" d="M310.8,-103.82C312.81,-104.19 314.87,-104.57 316.96,-104.95"></path>
<polygon fill="#283178" fill-opacity="0.450980" stroke="#283178" stroke-opacity="0.450980" points="316.23,-108.37 326.7,-106.74 317.5,-101.49 316.23,-108.37"></polygon>
</g>
<!-- node_modules/vue&#45;router -->
<g id="node12" class="node">
<title>node_modules/vue-router</title>
<g id="a_node12"><a xlink:href="node_modules/vue-router" xlink:title="vue-router">
<polygon fill="#c40b0a" fill-opacity="0.101961" stroke="black" points="195.79,-231.4 140.86,-231.4 138.77,-229.31 138.77,-212.6 193.7,-212.6 195.79,-214.69 195.79,-231.4"></polygon>
<polyline fill="none" stroke="black" points="193.7,-229.31 138.77,-229.31"></polyline>
<polyline fill="none" stroke="black" points="193.7,-229.31 193.7,-212.6"></polyline>
<polyline fill="none" stroke="black" points="193.7,-229.31 195.79,-231.4"></polyline>
<text text-anchor="start" x="146.77" y="-219.3" font-family="Helvetica,sans-Serif" font-size="9.00" fill="#c40b0a">vue-router</text>
</a>
</g>
</g>
<!-- node_modules/vue&#45;router&#45;&gt;node_modules/vue -->
<g id="edge16" class="edge">
<title>node_modules/vue-router-&gt;node_modules/vue</title>
<path fill="none" stroke="#283178" stroke-opacity="0.450980" d="M177.25,-212.35C196.35,-191.78 241.34,-143.36 265.88,-116.95"></path>
<polygon fill="#283178" fill-opacity="0.450980" stroke="#283178" stroke-opacity="0.450980" points="268.36,-119.42 272.6,-109.72 263.23,-114.66 268.36,-119.42"></polygon>
</g>
<!-- src/layouts/AppLayout.vue -->
<g id="node13" class="node">
<title>src/layouts/AppLayout.vue</title>
<g id="a_node13"><a xlink:href="src/layouts/AppLayout.vue" xlink:title="AppLayout.vue">
<path fill="#41f083" stroke="black" d="M199.03,-410.4C199.03,-410.4 135.52,-410.4 135.52,-410.4 132.39,-410.4 129.25,-407.27 129.25,-404.13 129.25,-404.13 129.25,-397.87 129.25,-397.87 129.25,-394.73 132.39,-391.6 135.52,-391.6 135.52,-391.6 199.03,-391.6 199.03,-391.6 202.17,-391.6 205.3,-394.73 205.3,-397.87 205.3,-397.87 205.3,-404.13 205.3,-404.13 205.3,-407.27 202.17,-410.4 199.03,-410.4"></path>
<text text-anchor="start" x="137.25" y="-398.3" font-family="Helvetica,sans-Serif" font-size="9.00">AppLayout.vue</text>
</a>
</g>
</g>
<!-- src/router/index.ts -->
<g id="node14" class="node">
<title>src/router/index.ts</title>
<g id="a_node14"><a xlink:href="src/router/index.ts" xlink:title="index.ts">
<path fill="#ddfeff" stroke="black" d="M71.73,-571.4C71.73,-571.4 30.27,-571.4 30.27,-571.4 27.13,-571.4 24,-568.27 24,-565.13 24,-565.13 24,-558.87 24,-558.87 24,-555.73 27.13,-552.6 30.27,-552.6 30.27,-552.6 71.73,-552.6 71.73,-552.6 74.87,-552.6 78,-555.73 78,-558.87 78,-558.87 78,-565.13 78,-565.13 78,-568.27 74.87,-571.4 71.73,-571.4"></path>
<text text-anchor="start" x="35.49" y="-559.3" font-family="Helvetica,sans-Serif" font-size="9.00">index.ts</text>
</a>
</g>
</g>
<!-- src/router/index.ts&#45;&gt;node_modules/vue&#45;router -->
<g id="edge26" class="edge">
<title>src/router/index.ts-&gt;node_modules/vue-router</title>
<path fill="none" stroke="#283178" stroke-opacity="0.450980" d="M53.52,-552.34C57.99,-524.87 72.17,-444.16 94,-380 111.57,-328.34 140.4,-270.8 155.8,-241.48"></path>
<polygon fill="#283178" fill-opacity="0.450980" stroke="#283178" stroke-opacity="0.450980" points="158.69,-243.51 160.29,-233.03 152.51,-240.23 158.69,-243.51"></polygon>
</g>
<!-- src/router/index.ts&#45;&gt;src/layouts/AppLayout.vue -->
<g id="edge17" class="edge">
<title>src/router/index.ts-&gt;src/layouts/AppLayout.vue</title>
<path fill="none" stroke="#283178" stroke-opacity="0.450980" d="M53.53,-552.23C57.21,-531.31 68.26,-481.48 94,-449 104.84,-435.32 120.68,-424.19 134.76,-416.11"></path>
<polygon fill="#283178" fill-opacity="0.450980" stroke="#283178" stroke-opacity="0.450980" points="136.16,-419.33 143.29,-411.48 132.83,-413.17 136.16,-419.33"></polygon>
</g>
<!-- src/views/Dashboard.vue -->
<g id="node15" class="node">
<title>src/views/Dashboard.vue</title>
<g id="a_node15"><a xlink:href="src/views/Dashboard.vue" xlink:title="Dashboard.vue">
<path fill="#41f083" stroke="black" d="M199.53,-717.4C199.53,-717.4 135.02,-717.4 135.02,-717.4 131.89,-717.4 128.76,-714.27 128.76,-711.13 128.76,-711.13 128.76,-704.87 128.76,-704.87 128.76,-701.73 131.89,-698.6 135.02,-698.6 135.02,-698.6 199.53,-698.6 199.53,-698.6 202.66,-698.6 205.8,-701.73 205.8,-704.87 205.8,-704.87 205.8,-711.13 205.8,-711.13 205.8,-714.27 202.66,-717.4 199.53,-717.4"></path>
<text text-anchor="start" x="136.76" y="-705.3" font-family="Helvetica,sans-Serif" font-size="9.00">Dashboard.vue</text>
</a>
</g>
</g>
<!-- src/router/index.ts&#45;&gt;src/views/Dashboard.vue -->
<g id="edge18" class="edge">
<title>src/router/index.ts-&gt;src/views/Dashboard.vue</title>
<path fill="none" stroke="#283178" stroke-dasharray="5,2" stroke-opacity="0.450980" d="M52.22,-571.58C53.3,-595.18 59.47,-656.56 94,-689 100.58,-695.18 108.93,-699.41 117.59,-702.29"></path>
<polygon fill="#283178" fill-opacity="0.450980" stroke="#283178" stroke-opacity="0.450980" points="116.6,-705.64 127.17,-704.86 118.42,-698.88 116.6,-705.64"></polygon>
</g>
<!-- src/views/finance/AccountsReceivable.vue -->
<g id="node16" class="node">
<title>src/views/finance/AccountsReceivable.vue</title>
<g id="a_node16"><a xlink:href="src/views/finance/AccountsReceivable.vue" xlink:title="AccountsReceivable.vue">
<path fill="#41f083" stroke="black" d="M218.29,-479.4C218.29,-479.4 116.27,-479.4 116.27,-479.4 113.13,-479.4 110,-476.27 110,-473.13 110,-473.13 110,-466.87 110,-466.87 110,-463.73 113.13,-460.6 116.27,-460.6 116.27,-460.6 218.29,-460.6 218.29,-460.6 221.42,-460.6 224.56,-463.73 224.56,-466.87 224.56,-466.87 224.56,-473.13 224.56,-473.13 224.56,-476.27 221.42,-479.4 218.29,-479.4"></path>
<text text-anchor="start" x="118" y="-467.3" font-family="Helvetica,sans-Serif" font-size="9.00">AccountsReceivable.vue</text>
</a>
</g>
</g>
<!-- src/router/index.ts&#45;&gt;src/views/finance/AccountsReceivable.vue -->
<g id="edge19" class="edge">
<title>src/router/index.ts-&gt;src/views/finance/AccountsReceivable.vue</title>
<path fill="none" stroke="#283178" stroke-dasharray="5,2" stroke-opacity="0.450980" d="M54.86,-552.32C60.01,-536.57 72.4,-505.52 94,-489 96.01,-487.46 98.13,-486.05 100.34,-484.75"></path>
<polygon fill="#283178" fill-opacity="0.450980" stroke="#283178" stroke-opacity="0.450980" points="101.69,-487.99 109.11,-480.42 98.59,-481.71 101.69,-487.99"></polygon>
</g>
<!-- src/views/finance/CustomerDetails.vue -->
<g id="node17" class="node">
<title>src/views/finance/CustomerDetails.vue</title>
<g id="a_node17"><a xlink:href="src/views/finance/CustomerDetails.vue" xlink:title="CustomerDetails.vue">
<path fill="#41f083" stroke="black" d="M210.78,-516.4C210.78,-516.4 123.78,-516.4 123.78,-516.4 120.65,-516.4 117.51,-513.27 117.51,-510.13 117.51,-510.13 117.51,-503.87 117.51,-503.87 117.51,-500.73 120.65,-497.6 123.78,-497.6 123.78,-497.6 210.78,-497.6 210.78,-497.6 213.91,-497.6 217.04,-500.73 217.04,-503.87 217.04,-503.87 217.04,-510.13 217.04,-510.13 217.04,-513.27 213.91,-516.4 210.78,-516.4"></path>
<text text-anchor="start" x="125.51" y="-504.3" font-family="Helvetica,sans-Serif" font-size="9.00">CustomerDetails.vue</text>
</a>
</g>
</g>
<!-- src/router/index.ts&#45;&gt;src/views/finance/CustomerDetails.vue -->
<g id="edge20" class="edge">
<title>src/router/index.ts-&gt;src/views/finance/CustomerDetails.vue</title>
<path fill="none" stroke="#283178" stroke-dasharray="5,2" stroke-opacity="0.450980" d="M60.76,-552.36C68.69,-544.2 81.07,-532.78 94,-526 97.96,-523.92 102.16,-522.06 106.47,-520.4"></path>
<polygon fill="#283178" fill-opacity="0.450980" stroke="#283178" stroke-opacity="0.450980" points="107.59,-523.71 115.89,-517.14 105.3,-517.1 107.59,-523.71"></polygon>
</g>
<!-- src/views/finance/FinancialDashboard.vue -->
<g id="node18" class="node">
<title>src/views/finance/FinancialDashboard.vue</title>
<g id="a_node18"><a xlink:href="src/views/finance/FinancialDashboard.vue" xlink:title="FinancialDashboard.vue">
<path fill="#41f083" stroke="black" d="M217.54,-553.4C217.54,-553.4 117.02,-553.4 117.02,-553.4 113.88,-553.4 110.75,-550.27 110.75,-547.13 110.75,-547.13 110.75,-540.87 110.75,-540.87 110.75,-537.73 113.88,-534.6 117.02,-534.6 117.02,-534.6 217.54,-534.6 217.54,-534.6 220.67,-534.6 223.81,-537.73 223.81,-540.87 223.81,-540.87 223.81,-547.13 223.81,-547.13 223.81,-550.27 220.67,-553.4 217.54,-553.4"></path>
<text text-anchor="start" x="118.75" y="-541.3" font-family="Helvetica,sans-Serif" font-size="9.00">FinancialDashboard.vue</text>
</a>
</g>
</g>
<!-- src/router/index.ts&#45;&gt;src/views/finance/FinancialDashboard.vue -->
<g id="edge21" class="edge">
<title>src/router/index.ts-&gt;src/views/finance/FinancialDashboard.vue</title>
<path fill="none" stroke="#283178" stroke-dasharray="5,2" stroke-opacity="0.450980" d="M78.22,-557.87C84.61,-556.86 91.73,-555.74 99.09,-554.58"></path>
<polygon fill="#283178" fill-opacity="0.450980" stroke="#283178" stroke-opacity="0.450980" points="99.54,-558.06 108.87,-553.04 98.45,-551.14 99.54,-558.06"></polygon>
</g>
<!-- src/views/finance/FinancialReports.vue -->
<g id="node19" class="node">
<title>src/views/finance/FinancialReports.vue</title>
<g id="a_node19"><a xlink:href="src/views/finance/FinancialReports.vue" xlink:title="FinancialReports.vue">
<path fill="#41f083" stroke="black" d="M211.28,-590.4C211.28,-590.4 123.27,-590.4 123.27,-590.4 120.14,-590.4 117.01,-587.27 117.01,-584.13 117.01,-584.13 117.01,-577.87 117.01,-577.87 117.01,-574.73 120.14,-571.6 123.27,-571.6 123.27,-571.6 211.28,-571.6 211.28,-571.6 214.42,-571.6 217.55,-574.73 217.55,-577.87 217.55,-577.87 217.55,-584.13 217.55,-584.13 217.55,-587.27 214.42,-590.4 211.28,-590.4"></path>
<text text-anchor="start" x="125.01" y="-578.3" font-family="Helvetica,sans-Serif" font-size="9.00">FinancialReports.vue</text>
</a>
</g>
</g>
<!-- src/router/index.ts&#45;&gt;src/views/finance/FinancialReports.vue -->
<g id="edge22" class="edge">
<title>src/router/index.ts-&gt;src/views/finance/FinancialReports.vue</title>
<path fill="none" stroke="#283178" stroke-dasharray="5,2" stroke-opacity="0.450980" d="M78.22,-566.36C86.46,-567.73 95.93,-569.3 105.53,-570.9"></path>
<polygon fill="#283178" fill-opacity="0.450980" stroke="#283178" stroke-opacity="0.450980" points="104.88,-574.34 115.31,-572.53 106.02,-567.43 104.88,-574.34"></polygon>
</g>
<!-- src/views/finance/SalesInvoiceDetails.vue -->
<g id="node20" class="node">
<title>src/views/finance/SalesInvoiceDetails.vue</title>
<g id="a_node20"><a xlink:href="src/views/finance/SalesInvoiceDetails.vue" xlink:title="SalesInvoiceDetails.vue">
<path fill="#41f083" stroke="black" d="M216.79,-627.4C216.79,-627.4 117.77,-627.4 117.77,-627.4 114.64,-627.4 111.5,-624.27 111.5,-621.13 111.5,-621.13 111.5,-614.87 111.5,-614.87 111.5,-611.73 114.64,-608.6 117.77,-608.6 117.77,-608.6 216.79,-608.6 216.79,-608.6 219.92,-608.6 223.05,-611.73 223.05,-614.87 223.05,-614.87 223.05,-621.13 223.05,-621.13 223.05,-624.27 219.92,-627.4 216.79,-627.4"></path>
<text text-anchor="start" x="119.5" y="-615.3" font-family="Helvetica,sans-Serif" font-size="9.00">SalesInvoiceDetails.vue</text>
</a>
</g>
</g>
<!-- src/router/index.ts&#45;&gt;src/views/finance/SalesInvoiceDetails.vue -->
<g id="edge23" class="edge">
<title>src/router/index.ts-&gt;src/views/finance/SalesInvoiceDetails.vue</title>
<path fill="none" stroke="#283178" stroke-dasharray="5,2" stroke-opacity="0.450980" d="M60.4,-571.59C68.28,-580 80.79,-591.96 94,-599 97.71,-600.98 101.64,-602.76 105.67,-604.36"></path>
<polygon fill="#283178" fill-opacity="0.450980" stroke="#283178" stroke-opacity="0.450980" points="104.49,-607.66 115.09,-607.7 106.83,-601.06 104.49,-607.66"></polygon>
</g>
<!-- src/views/Login.vue -->
<g id="node21" class="node">
<title>src/views/Login.vue</title>
<g id="a_node21"><a xlink:href="src/views/Login.vue" xlink:title="Login.vue">
<path fill="#41f083" stroke="black" d="M188.53,-754.4C188.53,-754.4 146.03,-754.4 146.03,-754.4 142.9,-754.4 139.76,-751.27 139.76,-748.13 139.76,-748.13 139.76,-741.87 139.76,-741.87 139.76,-738.73 142.9,-735.6 146.03,-735.6 146.03,-735.6 188.53,-735.6 188.53,-735.6 191.66,-735.6 194.79,-738.73 194.79,-741.87 194.79,-741.87 194.79,-748.13 194.79,-748.13 194.79,-751.27 191.66,-754.4 188.53,-754.4"></path>
<text text-anchor="start" x="147.76" y="-742.3" font-family="Helvetica,sans-Serif" font-size="9.00">Login.vue</text>
</a>
</g>
</g>
<!-- src/router/index.ts&#45;&gt;src/views/Login.vue -->
<g id="edge24" class="edge">
<title>src/router/index.ts-&gt;src/views/Login.vue</title>
<path fill="none" stroke="#283178" stroke-dasharray="5,2" stroke-opacity="0.450980" d="M51.37,-571.74C50.1,-599.91 50.5,-682.22 94,-726 103.03,-735.09 115.85,-739.99 128.2,-742.59"></path>
<polygon fill="#283178" fill-opacity="0.450980" stroke="#283178" stroke-opacity="0.450980" points="127.35,-746 137.78,-744.14 128.46,-739.09 127.35,-746"></polygon>
</g>
<!-- src/views/NotFound.vue -->
<g id="node22" class="node">
<title>src/views/NotFound.vue</title>
<g id="a_node22"><a xlink:href="src/views/NotFound.vue" xlink:title="NotFound.vue">
<path fill="#41f083" stroke="black" d="M197.28,-680.4C197.28,-680.4 137.28,-680.4 137.28,-680.4 134.14,-680.4 131.01,-677.27 131.01,-674.13 131.01,-674.13 131.01,-667.87 131.01,-667.87 131.01,-664.73 134.14,-661.6 137.28,-661.6 137.28,-661.6 197.28,-661.6 197.28,-661.6 200.41,-661.6 203.55,-664.73 203.55,-667.87 203.55,-667.87 203.55,-674.13 203.55,-674.13 203.55,-677.27 200.41,-680.4 197.28,-680.4"></path>
<text text-anchor="start" x="139.01" y="-668.3" font-family="Helvetica,sans-Serif" font-size="9.00">NotFound.vue</text>
</a>
</g>
</g>
<!-- src/router/index.ts&#45;&gt;src/views/NotFound.vue -->
<g id="edge25" class="edge">
<title>src/router/index.ts-&gt;src/views/NotFound.vue</title>
<path fill="none" stroke="#283178" stroke-dasharray="5,2" stroke-opacity="0.450980" d="M53.23,-571.71C56.26,-591.37 66.01,-635.91 94,-658 101.33,-663.78 110.38,-667.32 119.56,-669.43"></path>
<polygon fill="#283178" fill-opacity="0.450980" stroke="#283178" stroke-opacity="0.450980" points="118.79,-672.85 129.24,-671.08 119.97,-665.95 118.79,-672.85"></polygon>
</g>
</g>
</svg>